<svg width="1822" height="725" viewBox="0 0 1822 725" fill="none" xmlns="http://www.w3.org/2000/svg">
<path d="M724.378 362.045L551.98 534.443L534.711 517.175L689.881 362.005L672.648 344.772L431.282 586.138L414.049 568.905L448.514 534.439L414.048 499.973L431.317 482.705L465.783 517.171L517.482 465.472L431.278 379.268L362.31 448.235L345.077 431.002L379.578 396.501L345.112 362.035L327.879 379.268L345.113 396.501L310.611 431.002L362.311 482.702L431.278 413.735L483.013 465.469L465.78 482.702L431.314 448.236L362.347 517.203L276.143 430.999L310.609 396.534L293.34 379.265L224.411 448.194L207.178 430.961L293.381 344.758L310.614 361.991L327.847 344.758L293.381 310.292L172.714 430.959L207.18 465.425L189.912 482.693L69.2429 362.025L138.21 293.057L155.479 310.326L103.78 362.025L155.48 413.725L189.945 379.259L172.712 362.026L155.479 379.259L138.246 362.026L172.712 327.56L207.178 362.026L293.38 275.824L396.814 379.257L431.315 344.756L534.748 448.189L655.415 327.522L551.982 224.089L534.749 241.322L620.953 327.526L534.75 413.728L483.016 361.994L500.248 344.761L534.75 379.263L586.449 327.564L379.583 120.697L396.851 103.429L517.52 224.098L534.752 206.865L362.351 34.4634L207.181 189.633L189.948 172.4L362.347 0.00146484L724.378 362.045Z" fill="#90CAF9"/>
<path d="M534.744 551.679L362.346 724.077L0.306869 362.039L172.706 189.64L207.172 224.106L293.374 137.903L327.876 172.405L345.109 155.172L310.607 120.671L362.341 68.9368L379.61 86.2054L345.108 120.706L483.006 258.604L448.541 293.07L465.774 310.303L500.239 275.837L551.974 327.572L534.741 344.805L500.24 310.303L465.774 344.769L431.308 310.303L396.807 344.804L345.072 293.069L396.806 241.335L414.039 258.568L379.574 293.034L396.842 310.302L448.541 258.604L396.807 206.869L327.839 275.836L293.373 241.37L207.171 327.573L155.436 275.838L172.669 258.605L189.937 275.874L189.973 275.838L207.206 293.071L293.408 206.869L327.874 241.335L379.573 189.636L362.34 172.403L327.875 206.868L293.409 172.402L207.206 258.605L172.704 224.103L34.7699 362.038L189.942 517.21L258.91 448.243L345.113 534.447L310.648 568.913L379.578 637.842L362.309 655.11L241.64 534.442L258.909 517.173L293.375 551.639L310.608 534.407L258.908 482.707L207.174 534.441L362.308 689.574L414.041 637.84L345.112 568.911L396.811 517.212L414.044 534.445L379.578 568.911L431.278 620.61L517.481 534.408L534.744 551.679Z" fill="#90CAF9"/>
<path d="M907.144 245.344C909.848 245.344 912.032 245.656 913.696 246.28C915.568 246.904 917.024 248.152 918.064 250.024C919.104 251.688 919.624 254.496 919.624 258.448C919.624 262.192 919 265 917.752 266.872C916.712 268.744 915.256 269.992 913.384 270.616C911.512 271.032 909.224 271.24 906.52 271.24H841.936V449.392C841.936 452.096 841.52 454.488 840.688 456.568C840.064 458.648 838.712 460.208 836.632 461.248C834.76 462.496 831.848 463.12 827.896 463.12C823.736 463.12 820.616 462.496 818.536 461.248C816.664 460.208 815.416 458.648 814.792 456.568C814.376 454.28 814.168 451.784 814.168 449.08V271.24H748.648C745.944 271.24 743.656 271.032 741.784 270.616C739.912 269.992 738.456 268.744 737.416 266.872C736.376 265 735.856 262.192 735.856 258.448C735.856 254.496 736.272 251.688 737.104 250.024C738.144 248.152 739.6 246.904 741.472 246.28C743.552 245.656 745.84 245.344 748.336 245.344H907.144ZM971.233 463.744C967.697 463.744 964.785 463.224 962.497 462.184C960.417 461.144 958.649 459.272 957.193 456.568L899.473 330.832C897.185 325.84 896.665 322.096 897.913 319.6C899.161 316.896 902.073 314.4 906.649 312.112C910.809 310.032 914.345 309.408 917.257 310.24C920.169 310.864 922.665 313.568 924.745 318.352L971.233 429.112L1016.79 321.472C1019.07 316.688 1021.57 313.256 1024.27 311.176C1026.98 309.096 1031.24 309.512 1037.07 312.424C1042.68 315.128 1045.49 318.248 1045.49 321.784C1045.49 325.112 1044.55 328.752 1042.68 332.704L985.273 456.256C984.233 458.752 982.569 460.624 980.281 461.872C977.993 463.12 974.977 463.744 971.233 463.744ZM1090.76 463.12C1087.02 463.12 1084.11 462.496 1082.03 461.248C1080.16 460 1078.8 458.336 1077.97 456.256C1077.14 453.968 1076.72 451.472 1076.72 448.768V259.072C1076.72 256.368 1077.14 254.08 1077.97 252.208C1078.8 250.128 1080.26 248.464 1082.34 247.216C1084.42 245.968 1087.44 245.344 1091.39 245.344C1094.51 245.344 1097 245.552 1098.88 245.968C1100.75 246.384 1102.2 247.008 1103.24 247.84C1104.49 248.464 1105.74 249.504 1106.99 250.96L1188.42 368.896H1178.75L1261.12 250.024C1262.36 248.568 1263.61 247.528 1264.86 246.904C1266.11 246.28 1267.67 245.864 1269.54 245.656C1271.62 245.448 1274.01 245.344 1276.72 245.344C1280.67 245.344 1283.58 245.968 1285.45 247.216C1287.53 248.464 1288.99 250.232 1289.82 252.52C1290.65 254.6 1291.07 256.992 1291.07 259.696V449.392C1291.07 451.888 1290.65 454.176 1289.82 456.256C1288.99 458.336 1287.53 460 1285.45 461.248C1283.37 462.496 1280.36 463.12 1276.4 463.12C1272.66 463.12 1269.75 462.496 1267.67 461.248C1265.8 460 1264.44 458.336 1263.61 456.256C1262.99 453.968 1262.68 451.472 1262.68 448.768V292.144L1195.91 390.424C1195.28 391.464 1194.45 392.504 1193.41 393.544C1192.37 394.376 1191.02 395.104 1189.36 395.728C1187.9 396.352 1186.03 396.664 1183.74 396.664C1181.24 396.664 1179.27 396.352 1177.81 395.728C1176.56 395.104 1175.42 394.376 1174.38 393.544C1173.34 392.504 1172.3 391.36 1171.26 390.112L1104.8 292.456V449.392C1104.8 451.888 1104.39 454.176 1103.56 456.256C1102.93 458.336 1101.58 460 1099.5 461.248C1097.63 462.496 1094.72 463.12 1090.76 463.12ZM1456.29 462.808C1451.71 462.808 1448.38 461.872 1446.3 460C1444.43 458.128 1443.29 455.216 1442.87 451.264L1444.12 435.664C1442.04 438.992 1438.81 442.84 1434.45 447.208C1430.08 451.368 1424.36 455.112 1417.29 458.44C1410.21 461.56 1401.58 463.12 1391.39 463.12C1381.41 463.12 1372.05 461.144 1363.31 457.192C1354.78 453.24 1347.19 447.728 1340.53 440.656C1334.09 433.584 1328.99 425.472 1325.25 416.32C1321.71 407.168 1319.94 397.392 1319.94 386.992C1319.94 376.8 1321.71 367.232 1325.25 358.288C1328.99 349.136 1334.19 341.128 1340.85 334.264C1347.5 327.4 1355.09 321.992 1363.62 318.04C1372.36 314.088 1381.61 312.112 1391.39 312.112C1400.54 312.112 1408.34 313.36 1414.79 315.856C1421.24 318.144 1426.75 321.264 1431.33 325.216C1436.11 328.96 1440.27 333.224 1443.81 338.008L1443.18 324.904C1442.97 320.328 1443.91 317.104 1445.99 315.232C1448.28 313.152 1451.81 312.112 1456.6 312.112C1460.55 312.112 1463.36 312.736 1465.02 313.984C1466.89 315.232 1468.14 317 1468.77 319.288C1469.39 321.576 1469.7 324.384 1469.7 327.712V448.144C1469.7 451.056 1469.39 453.656 1468.77 455.944C1468.14 458.232 1466.89 459.896 1465.02 460.936C1463.15 462.184 1460.24 462.808 1456.29 462.808ZM1396.07 436.912C1404.39 436.912 1411.98 434.728 1418.85 430.36C1425.92 425.992 1431.43 420.168 1435.38 412.888C1439.54 405.4 1441.62 396.872 1441.62 387.304C1441.62 377.528 1439.44 369 1435.07 361.72C1430.91 354.232 1425.29 348.408 1418.22 344.248C1411.36 339.88 1403.77 337.696 1395.45 337.696C1385.67 337.696 1377.14 339.984 1369.86 344.56C1362.79 348.928 1357.17 354.856 1353.01 362.344C1348.85 369.832 1346.77 378.36 1346.77 387.928C1346.77 397.288 1348.85 405.712 1353.01 413.2C1357.17 420.48 1362.89 426.304 1370.17 430.672C1377.66 434.832 1386.29 436.912 1396.07 436.912ZM1512.51 463.12C1508.15 463.12 1504.71 461.976 1502.22 459.688C1499.93 457.4 1498.79 454.072 1498.79 449.704C1498.79 447.416 1499.1 445.44 1499.72 443.776C1500.55 441.904 1501.8 440.24 1503.47 438.784L1595.19 339.568H1520C1517.09 339.568 1514.59 339.36 1512.51 338.944C1510.43 338.32 1508.77 336.968 1507.52 334.888C1506.48 332.808 1505.96 329.792 1505.96 325.84C1505.96 321.68 1506.48 318.664 1507.52 316.792C1508.77 314.712 1510.43 313.464 1512.51 313.048C1514.59 312.424 1517.09 312.112 1520 312.112H1623.59C1628.16 312.112 1631.59 313.256 1633.88 315.544C1636.17 317.832 1637.31 321.056 1637.31 325.216C1637.31 327.296 1637 329.168 1636.38 330.832C1635.75 332.496 1634.92 333.848 1633.88 334.888L1542.15 435.352H1627.64C1630.55 435.352 1633.05 435.768 1635.13 436.6C1637.21 437.224 1638.77 438.576 1639.81 440.656C1640.85 442.528 1641.37 445.544 1641.37 449.704C1641.37 453.656 1640.75 456.672 1639.5 458.752C1638.46 460.624 1636.9 461.768 1634.82 462.184C1632.74 462.808 1630.24 463.12 1627.33 463.12H1512.51ZM1743.78 464.68C1731.3 464.68 1720.18 462.6 1710.4 458.44C1700.62 454.28 1692.3 448.664 1685.44 441.592C1678.78 434.312 1673.69 425.992 1670.15 416.632C1666.62 407.272 1664.85 397.184 1664.85 386.368C1664.85 372.016 1668.18 359.224 1674.83 347.992C1681.49 336.76 1690.64 327.92 1702.29 321.472C1714.14 314.816 1727.66 311.488 1742.85 311.488C1753.25 311.488 1762.5 313.152 1770.62 316.48C1778.94 319.6 1786.01 323.864 1791.83 329.272C1797.66 334.68 1802.13 340.712 1805.25 347.368C1808.37 354.024 1809.93 360.68 1809.93 367.336C1809.93 377.944 1807.43 385.432 1802.44 389.8C1797.45 393.96 1791.31 396.04 1784.03 396.04H1693.86C1693.66 405.192 1696.05 413.096 1701.04 419.752C1706.24 426.2 1712.69 431.192 1720.38 434.728C1728.29 438.264 1736.19 440.032 1744.1 440.032C1749.92 440.032 1754.91 439.72 1759.07 439.096C1763.23 438.472 1766.87 437.64 1769.99 436.6C1773.11 435.56 1775.82 434.52 1778.1 433.48C1780.39 432.44 1782.37 431.4 1784.03 430.36C1785.9 429.32 1787.67 428.592 1789.34 428.176C1791.21 427.76 1792.98 427.968 1794.64 428.8C1796.51 429.424 1797.97 430.776 1799.01 432.856C1800.26 434.52 1801.09 436.08 1801.5 437.536C1801.92 438.992 1802.13 440.552 1802.13 442.216C1802.13 445.128 1799.63 448.352 1794.64 451.888C1789.65 455.424 1782.68 458.44 1773.74 460.936C1765 463.432 1755.02 464.68 1743.78 464.68ZM1693.86 377.632H1772.18C1776.13 377.632 1779.04 377.112 1780.91 376.072C1782.99 375.032 1784.03 372.224 1784.03 367.648C1784.03 361.824 1782.26 356.624 1778.73 352.048C1775.19 347.264 1770.3 343.416 1764.06 340.504C1758.03 337.592 1751.06 336.136 1743.16 336.136C1734.01 336.136 1725.58 338.008 1717.89 341.752C1710.4 345.288 1704.47 350.176 1700.1 356.416C1695.74 362.656 1693.66 369.728 1693.86 377.632Z" fill="#90CAF9"/>
</svg>
