<svg width="725" height="725" viewBox="0 0 725 725" fill="none" xmlns="http://www.w3.org/2000/svg">
<path d="M724.378 362.045L551.979 534.443L534.711 517.175L689.881 362.005L672.648 344.772L431.282 586.138L414.049 568.905L448.514 534.439L414.048 499.973L431.316 482.705L465.782 517.171L517.481 465.472L431.277 379.268L362.31 448.235L345.077 431.002L379.578 396.501L345.112 362.035L327.879 379.268L345.112 396.501L310.611 431.002L362.311 482.702L431.278 413.735L483.013 465.469L465.78 482.702L431.314 448.236L362.347 517.203L276.143 430.999L310.608 396.534L293.34 379.265L224.411 448.194L207.178 430.961L293.381 344.758L310.614 361.991L327.847 344.758L293.381 310.292L172.714 430.959L207.18 465.425L189.912 482.693L69.2427 362.025L138.21 293.057L155.479 310.326L103.78 362.025L155.479 413.725L189.945 379.259L172.712 362.026L155.479 379.259L138.246 362.026L172.712 327.56L207.178 362.026L293.38 275.824L396.814 379.257L431.315 344.756L534.748 448.189L655.415 327.522L551.982 224.089L534.749 241.322L620.953 327.526L534.75 413.728L483.015 361.994L500.248 344.761L534.75 379.263L586.449 327.564L379.582 120.697L396.851 103.429L517.52 224.098L534.752 206.865L362.351 34.4634L207.181 189.633L189.948 172.4L362.347 0.00146484L724.378 362.045Z" fill="#90CAF9"/>
<path d="M534.744 551.679L362.345 724.077L0.306736 362.039L172.706 189.64L207.172 224.106L293.374 137.903L327.876 172.405L345.109 155.172L310.607 120.671L362.341 68.9368L379.609 86.2054L345.108 120.706L483.006 258.604L448.541 293.07L465.774 310.303L500.239 275.837L551.974 327.572L534.741 344.805L500.24 310.303L465.774 344.769L431.308 310.303L396.807 344.804L345.072 293.069L396.806 241.335L414.039 258.568L379.574 293.034L396.842 310.302L448.541 258.604L396.806 206.869L327.839 275.836L293.373 241.37L207.17 327.573L155.436 275.838L172.669 258.605L189.937 275.874L189.973 275.838L207.206 293.071L293.408 206.869L327.874 241.335L379.573 189.636L362.34 172.403L327.875 206.868L293.409 172.402L207.206 258.605L172.704 224.103L34.7697 362.038L189.942 517.21L258.909 448.243L345.113 534.447L310.648 568.913L379.577 637.842L362.309 655.11L241.64 534.442L258.909 517.173L293.375 551.639L310.607 534.407L258.908 482.707L207.174 534.441L362.307 689.574L414.041 637.84L345.112 568.911L396.811 517.212L414.044 534.445L379.578 568.911L431.278 620.61L517.481 534.408L534.744 551.679Z" fill="#90CAF9"/>
</svg>
